HIERARCHY
ROOT pelvis
{
  OFFSET 0 100 0
  CHANNELS 6 Xposition Yposition Zposition Zrotation Xrotation Yrotation
  JOINT pelvis_right_femur
  {
    OFFSET -10.78128 -3.44521 -0.5502486
    CHANNELS 3 Zrotation Xrotation Yrotation
    JOINT right_femur_tibia
    {
      OFFSET -0.8047443 -44.0398 -0.1307829
      CHANNELS 3 Zrotation Xrotation Yrotation
      JOINT right_tibia_foot
      {
        OFFSET 3.006224 -47.83518 -5
        CHANNELS 3 Zrotation Xrotation Yrotation
        End Site
        {
          OFFSET 0 -5 15
        }
      }
    }
  }
  JOINT pelvis_left_femur
  {
    OFFSET 10.78128 -3.44521 -0.5502486
    CHANNELS 3 Zrotation Xrotation Yrotation
    JOINT left_femur_tibia
    {
      OFFSET 0.8047443 -44.0398 -0.1307829
      CHANNELS 3 Zrotation Xrotation Yrotation
      JOINT left_tibia_foot
      {
        OFFSET -4.370144 -48.10324 -4.275266
        CHANNELS 3 Zrotation Xrotation Yrotation
        End Site
        {
          OFFSET 0 -5 15
        }
      }
    }
  }
  JOINT pelvis_spine1
  {
    OFFSET 0 6.468898 -3.129235
    CHANNELS 3 Zrotation Xrotation Yrotation
    JOINT spine1
    {
      OFFSET 0 23.15396 4.99043
      CHANNELS 3 Zrotation Xrotation Yrotation
      JOINT spine2
      {
        OFFSET 0 20.79997 -5.064912
        CHANNELS 3 Zrotation Xrotation Yrotation
        JOINT neck
        {
          OFFSET 0 14.38658 9.616178
          CHANNELS 3 Zrotation Xrotation Yrotation
          End Site
          {
            OFFSET 0 20 0
          }
        }
      }
      JOINT right_manubrium
      {
        OFFSET -5.722621 16.35077 3.967754
        CHANNELS 3 Zrotation Xrotation Yrotation
        JOINT right_clavicle
        {
          OFFSET -13.16364 1.694482 -4.693211
          CHANNELS 3 Zrotation Xrotation Yrotation
          JOINT right_humerus
          {
            OFFSET -28.5034 -0.3100689 -2.792744
            CHANNELS 3 Zrotation Xrotation Yrotation
            JOINT right_radius
            {
              OFFSET -25.15693 0.02248979 -1.271978
              CHANNELS 3 Zrotation Xrotation Yrotation
              End Site
              {
                OFFSET -15 0 0
              }
            }
          }
        }
      }
      JOINT left_manubrium
      {
        OFFSET 5.722621 16.35077 3.967754
        CHANNELS 3 Zrotation Xrotation Yrotation
        JOINT left_clavicle
        {
          OFFSET 13.16364 1.694482 -4.693211
          CHANNELS 3 Zrotation Xrotation Yrotation
          JOINT left_humerus
          {
            OFFSET 29.39168 -1.063119 -2.237045
            CHANNELS 3 Zrotation Xrotation Yrotation
            JOINT left_radius
            {
              OFFSET 24.59957 -0.9528479 0.9047498
              CHANNELS 3 Zrotation Xrotation Yrotation
              End Site
              {
                OFFSET 15 -0 -0
              }
            }
          }
        }
      }
    }
  }
}
MOTION
Frames: 21
Frame Time: 0.0416666666667
0 103.5113 0 2.518117 -2.176699 0.105542 0.7615134 -10.1427 7.512302 -0 35.79613 -0 -4.51538 -17.85806 -3.596621 -7.852742 11.66419 -22.93347 -0 4.816705 -0 7.767197 -15.12788 25.32881 -2.58582 -3.874995 4.830498 3.094196 9.818945 -8.124586 1.43955 21.10679 6.589166 2.934923 -26.32784 9.798878 6.284826 -19.33579 11.17671 86.21821 33.93265 -21.21777 -0 0 15.60364 -5.971053 7.725833 3.131573 6.822689 -21.23657 -1.145007 -95.47922 25.91335 23.53231 0 0 -15.11863 9.466739 16.85383 3.338954
0.2789081 103.7753 1.383669 1.93765 -1.524899 0.04266262 1.915422 -12.4862 8.59709 -0 37.00587 -0 -4.537333 -16.89282 -3.739668 -7.609591 11.24243 -23.12358 -0 4.998768 -0 7.494567 -16.33991 26.07723 -2.574653 -3.843178 4.837355 3.080613 9.830678 -8.104103 1.417242 21.14748 6.557675 2.914941 -26.2463 9.731515 6.280119 -19.30266 11.16887 86.21649 33.92959 -21.18713 -0 0 15.54212 -6.042912 7.743456 3.200415 6.75859 -21.20978 -1.186679 -95.47967 25.98168 23.56338 0 0 -15.07546 9.288939 16.8198 3.522699
0.5956679 103.6932 3.584251 1.064275 0.5028501 0.1080653 3.781436 -21.39933 7.93385 -0 29.58848 -0 -4.45734 -12.13752 -3.099722 -7.170878 11.66888 -20.93733 -0 4.675964 -0 7.983053 -18.92186 24.74308 -2.295443 -3.269257 4.816801 3.070091 9.824642 -8.140294 1.341143 20.83903 6.829544 3.161983 -26.66658 9.755348 6.139556 -19.13589 11.2426 86.6426 34.67426 -21.34851 -0 0 14.88059 -5.880797 7.759249 3.407004 6.80737 -21.43184 -1.209212 -94.62488 25.76383 22.92765 0 0 -16.9908 9.916126 15.84003 3.250321
0.9082014 103.56 5.934341 0.2414964 1.428897 0.2857742 5.202592 -24.97794 8.501512 -0 28.86426 -0 -4.866866 -10.58309 -3.037637 -6.67897 11.68047 -20.79051 -0 5.020692 -0 6.855994 -20.56765 24.35498 -2.170552 -3.018913 4.789563 3.080603 9.812986 -8.19032 1.296606 20.65494 7.002867 3.31015 -26.92815 9.79552 6.068722 -19.07638 11.2758 86.91597 35.01861 -21.57019 -0 0 14.55341 -5.748505 7.710799 3.481138 6.868788 -21.59203 -1.263237 -94.20611 25.7614 22.62707 0 0 -18.16462 10.16625 15.31576 3.246678
1.237584 103.3834 8.737675 -0.613654 2.791229 0.6045776 6.785218 -29.62305 8.656063 -0 25.88559 -0 -5.290027 -8.350204 -2.548834 -6.220617 12.01203 -20.04883 -0 5.718402 -0 6.694578 -21.58241 23.50727 -2.047892 -2.791778 4.753674 3.090186 9.792966 -8.260224 1.240936 20.44975 7.212042 3.489034 -27.22855 9.84928 5.997192 -19.03728 11.29721 87.25956 35.35124 -21.93578 -0 0 14.22648 -5.564873 7.590698 3.534549 6.957817 -21.80333 -1.378986 -93.82186 25.94152 22.39159 0 0 -19.58166 10.2817 14.75989 3.4863
1.574537 103.1793 11.80656 -1.304382 3.624259 1.010736 7.874447 -32.23893 8.800163 -0 24.39796 -0 -5.812082 -7.120011 -2.281921 -5.782464 12.27986 -19.74379 -0 6.474395 -0 5.567199 -22.41299 22.54196 -1.923952 -2.581472 4.727803 3.070188 9.792181 -8.304278 1.175649 20.30244 7.37124 3.63338 -27.37711 9.831441 5.936289 -18.97509 11.3105 87.56192 35.62313 -22.23687 -0 0 13.90968 -5.555087 7.565292 3.658761 6.999017 -21.97984 -1.512325 -93.47589 26.12111 22.18924 0 0 -20.73992 10.21732 14.27037 3.864062
1.924321 102.9651 15.3708 -1.947934 4.58145 1.53771 8.864583 -34.82106 8.604082 -0 21.55726 -0 -6.218249 -5.531007 -1.862393 -5.376219 12.86424 -18.92443 -0 8.008118 -0 4.619589 -22.55277 20.99421 -1.792193 -2.377678 4.708983 3.023649 9.807341 -8.334535 1.103853 20.18817 7.503389 3.76295 -27.423 9.763873 5.885231 -18.89719 11.3191 87.85557 35.86278 -22.52014 -0 0 13.59868 -5.671126 7.612625 3.827718 7.0143 -22.14752 -1.664706 -93.1533 26.32751 22.01041 0 0 -21.77101 10.01048 13.82229 4.380298
2.283552 102.7492 19.37977 -2.467046 5.209857 2.129701 9.504958 -36.20693 8.308839 -0 19.32662 -0 -6.56617 -4.337667 -1.580067 -4.992687 13.41864 -18.14862 -0 9.928127 -0 3.182065 -22.34439 19.28875 -1.657136 -2.183113 4.70298 2.947855 9.845057 -8.344946 1.03017 20.12261 7.58978 3.864368 -27.34238 9.63669 5.850985 -18.80209 11.32558 88.11594 36.05875 -22.74859 -0 0 13.31022 -5.932978 7.752565 4.040511 6.989251 -22.28997 -1.82429 -92.87388 26.54254 21.86648 0 0 -22.57187 9.656609 13.4492 5.013544
2.65543 102.6038 23.95943 -2.923648 5.694661 2.770536 9.992704 -36.75126 7.843113 -0 16.941 -0 -6.792979 -3.130049 -1.298566 -4.642157 14.01355 -17.00833 -0 13.15582 -0 1.711394 -21.22231 17.23345 -1.519205 -1.989978 4.709113 2.846506 9.904718 -8.337974 0.9556687 20.09793 7.636662 3.941006 -27.14963 9.457384 5.831012 -18.69127 11.33495 88.34245 36.22611 -22.91474 -0 0 13.04031 -6.341884 7.990232 4.301022 6.926347 -22.40854 -1.982672 -92.61684 26.74095 21.73739 0 0 -23.16681 9.191255 13.13305 5.724367
3.040024 102.5871 29.09003 -3.251377 5.801338 3.382264 10.21463 -36.06801 7.319315 -0 15.21971 -0 -6.909185 -2.2237 -1.162486 -4.322871 14.37729 -15.75145 -0 17.43169 -0 0.006399037 -19.46203 15.14501 -1.385982 -1.800313 4.732676 2.719558 9.988329 -8.308361 0.8825547 20.12394 7.63508 3.986607 -26.83903 9.223686 5.828116 -18.56945 11.34909 88.51382 36.36077 -22.99034 -0 0 12.80439 -6.903216 8.323167 4.611945 6.814032 -22.49031 -2.135228 -92.40138 26.92561 21.64448 0 0 -23.50483 8.605786 12.88736 6.511461
3.437669 102.8223 34.78267 -3.430729 5.459144 3.877068 10.22498 -33.907 6.728435 -0 14.17083 -0 -6.946319 -1.63285 -1.138655 -4.051535 14.23482 -14.2179 -0 23.63854 -0 -1.711836 -16.69196 13.06011 -1.261184 -1.604904 4.776115 2.569041 10.09681 -8.253499 0.8088159 20.19748 7.588627 4.002379 -26.4138 8.936245 5.836755 -18.43887 11.37386 88.61777 36.47556 -22.94875 -0 0 12.59822 -7.644332 8.75957 4.998147 6.646092 -22.52977 -2.277247 -92.204 27.06502 21.57237 0 0 -23.59486 7.92119 12.68246 7.346286
3.841359 103.4093 40.93611 -3.37684 4.540579 4.146384 9.951775 -30.27607 6.135744 -0 13.95102 -0 -6.923651 -1.519469 -1.28264 -3.821601 13.21564 -12.57684 -0 31.42664 -0 -3.361873 -13.32849 11.3234 -1.156769 -1.405892 4.846596 2.393752 10.22713 -8.164197 0.7348617 20.3251 7.496344 3.987071 -25.8746 8.597924 5.853663 -18.31152 11.41134 88.62377 36.57368 -22.74862 -0 0 12.44394 -8.583061 9.287617 5.478374 6.41278 -22.51147 -2.406008 -92.03967 27.165 21.54828 0 0 -23.41095 7.128386 12.51463 8.23536
4.237616 104.4382 47.37866 -3.035512 3.003259 4.099524 9.368842 -25.16119 5.53071 -0 14.34333 -0 -6.971397 -2.018062 -1.521376 -3.62082 10.77768 -10.90066 -0 40.80398 -0 -4.671312 -9.609566 10.16088 -1.08365 -1.200813 4.950141 2.192301 10.37177 -8.032054 0.6592093 20.50186 7.370373 3.946846 -25.23195 8.218694 5.867449 -18.20272 11.46536 88.50438 36.67174 -22.3472 -0 0 12.35942 -9.756923 9.900573 6.087675 6.113328 -22.42548 -2.517481 -91.89598 27.2125 21.57829 0 0 -22.97933 6.239271 12.35128 9.170812
4.604645 105.8871 53.86378 -2.392571 1.02114 3.728793 8.459793 -19.18431 4.925005 -0 14.67335 -0 -7.119316 -3.063855 -1.76376 -3.403311 6.735741 -9.406785 -0 50.24959 -0 -5.413443 -6.376214 9.820168 -1.061321 -0.9997512 5.093945 1.963915 10.51175 -7.84501 0.5838778 20.72553 7.22593 3.887826 -24.5096 7.82091 5.865787 -18.14003 11.5351 88.21568 36.78532 -21.69079 -0 0 12.3885 -11.17911 10.56706 6.847634 5.751773 -22.25371 -2.603567 -91.79107 27.2275 21.70137 0 0 -22.31868 5.257648 12.18445 10.15864
4.925964 107.5984 60.14392 -1.516377 -1.07264 3.12251 7.301188 -12.91774 4.290341 -0 14.23571 -0 -7.416248 -4.53251 -1.83653 -3.114164 1.121918 -8.208023 -0 57.98203 -0 -5.403249 -4.21069 10.3138 -1.108888 -0.8129396 5.282361 1.711441 10.62134 -7.594604 0.5112403 20.9837 7.087637 3.818918 -23.74607 7.436335 5.830356 -18.15401 11.61922 87.71584 36.93739 -20.72815 -0 0 12.57237 -12.86255 11.25775 7.779345 5.34186 -21.98218 -2.651035 -91.72549 27.21521 21.93921 0 0 -21.48429 4.213144 11.99635 11.18047
5.200372 109.2944 66.07209 -0.5682685 -2.836568 2.43491 6.111697 -7.04712 3.65901 -0 12.69143 -0 -7.694766 -6.138809 -1.649582 -2.678044 -5.31404 -7.273051 -0 61.83086 -0 -4.760556 -3.399367 11.45217 -1.249325 -0.65706 5.51806 1.444823 10.66882 -7.274399 0.4452465 21.26358 6.977306 3.743323 -22.99223 7.101521 5.740931 -18.27807 11.71329 86.95401 37.1437 -19.40121 -0 0 12.95539 -14.7926 11.92907 8.888414 4.898481 -21.59165 -2.640774 -91.7071 27.17781 22.31705 0 0 -20.51878 3.152771 11.78263 12.19081
5.452318 110.6745 71.63125 0.2581168 -3.958335 1.801589 5.150442 -1.837053 3.085856 -0 10.39872 -0 -7.801281 -7.793761 -1.184601 -1.985693 -11.79748 -6.39402 -0 60.72487 -0 -3.814567 -3.610409 12.86404 -1.500252 -0.5462906 5.806667 1.177895 10.62972 -6.881738 0.3895163 21.54305 6.91105 3.660507 -22.30169 6.846835 5.571904 -18.54394 11.81255 85.88226 37.39894 -17.65132 -0 0 13.57399 -16.95231 12.53733 10.17731 4.440691 -21.06869 -2.553728 -91.72211 27.07233 22.83681 0 0 -19.46601 2.161102 11.51769 13.09347
5.721501 111.5162 76.91296 0.7843384 -4.344023 1.294744 4.610171 2.621248 2.657159 -0 8.101398 -0 -7.563454 -9.534899 -0.5432602 -0.9253374 -17.58607 -5.318824 -0 54.87528 -0 -3.012053 -4.265931 14.16947 -1.869534 -0.4979487 6.162947 0.9232868 10.49359 -6.415264 0.3486512 21.79021 6.891274 3.567543 -21.72689 6.689744 5.295352 -18.98571 11.90873 84.46052 37.65217 -15.42989 -0 0 14.47413 -19.29771 13.01807 11.63089 3.996495 -20.40939 -2.377993 -91.75561 26.8239 23.49983 0 0 -18.35856 1.350319 11.15586 13.75497
6.051406 111.7211 82.05822 0.9095586 -4.077528 0.9269614 4.514065 6.372821 2.419185 -0 6.433572 -0 -6.9382 -11.50573 0.1754586 0.5514923 -22.34906 -3.891176 -0 45.56277 -0 -2.607288 -4.836254 15.09187 -2.335662 -0.5302832 6.611581 0.6818515 10.27514 -5.878773 0.330816 21.9569 6.904498 3.468529 -21.30656 6.627114 4.890202 -19.63117 11.98737 82.69987 37.78726 -12.75725 -0 0 15.71209 -21.73816 13.29616 13.1932 3.616997 -19.63915 -2.119988 -91.79999 26.34579 24.30749 0 0 -17.24032 0.8364839 10.63133 14.04559
6.477868 111.3172 87.23098 0.6324315 -3.378304 0.66052 4.724294 9.474504 2.368184 -0 5.726596 -0 -5.951513 -13.75499 0.8768701 2.311817 -25.92727 -2.189027 -0 34.65504 -0 -2.635291 -5.025037 15.58642 -2.832977 -0.6548109 7.171703 0.4383181 10.01498 -5.287834 0.3484599 21.99272 6.920533 3.378878 -21.04298 6.629787 4.360872 -20.47482 12.02749 80.71876 37.6339 -9.797801 -0 0 17.32493 -24.10932 13.31565 14.74254 3.372098 -18.81904 -1.811104 -91.87638 25.60198 25.25752 0 0 -16.16211 0.6691886 9.897093 13.92511
7.030429 110.4376 92.60825 0.07874604 -2.514959 0.4168362 4.963866 12.03908 2.433988 -0 6.006316 -0 -4.727536 -16.13063 1.515927 3.981539 -28.33625 -0.575242 -0 24.17897 -0 -2.909551 -4.7999 15.82386 -3.255382 -0.854631 7.827506 0.1702152 9.772635 -4.679266 0.4133538 21.87433 6.903623 3.32134 -20.88232 6.648647 3.755005 -21.43829 12.0124 78.78181 37.03614 -6.906383 -0 0 19.25284 -26.19395 13.09744 16.1022 3.31999 -18.03757 -1.506941 -92.02808 24.65679 26.30648 0 0 -15.16949 0.7701476 8.971997 13.51219
